#!OML:ASF X:\für Bonn\!DataBase\2005_08_10_Bjorn_Final\c3d\bjorn.ASF
:FULLY-SPECIFIED
:DEGREES
32
root -13.2336 18.6929 1.5846 338.667 95.5494 345.872
lowerback 8.83526 -1.91088 8.24548
upperback 18.0464 -1.01719 1.3869
thorax 15.0616 1.20512 -2.83571
lowerneck 10.9697 1.00849 4.07601
upperneck -6.24019 0.970992 -13.0992
head -3.58217 1.11846 -4.76995
rclavicle -2.62396e-014 -4.13472e-014
rhumerus -20.8223 -19.0356 -82.3004
rradius 47.0525
rwrist 1.43193
rhand -8.0234 13.7392
rfingers 7.12502
rthumb 17.8863 -15.4582
lclavicle -2.62396e-014 -4.13472e-014
lhumerus -23.8094 -3.53817 83.4843
lradius 51.2173
lwrist -12.0061
lhand -40.4653 -11.6822
lfingers 7.12502
lthumb -13.4163 17.8658
rfemur -7.34629 -3.14303 18.0447
rtibia 40.2937
rfoot -22.0904 10.7348
rtoes -10.7749
lfemur -43.8553 10.2085 -16.6991
ltibia 60.0076
lfoot 0.937371 11.159
ltoes -10.5708
33
root -13.1802 18.686 1.57644 339.729 95.5171 346.957
lowerback 8.76904 -1.94294 8.35989
upperback 18.0144 -1.08022 1.47692
thorax 15.0565 1.17805 -2.80054
lowerneck 10.9153 1.18054 3.91472
upperneck -6.06137 1.19008 -13.2831
head -3.501 1.23565 -4.80923
rclavicle 7.95139e-015 7.95139e-015
rhumerus -20.8386 -19.0355 -82.28
rradius 46.8992
rwrist 1.55456
rhand -8.06797 13.7511
rfingers 7.12502
rthumb 17.8434 -15.4503
lclavicle 7.95139e-015 7.95139e-015
lhumerus -23.8953 -3.54458 83.4714
lradius 51.2332
lwrist -12.0014
lhand -40.4421 -11.6633
lfingers 7.12502
lthumb -13.394 17.8861
rfemur -7.08794 -3.09208 18.1643
rtibia 40.2225
rfoot -22.248 10.6787
rtoes -10.8317
lfemur -43.4439 10.2408 -16.4952
ltibia 58.5027
lfoot 1.72852 11.195
ltoes -10.9353
34
root -13.1252 18.6785 1.56831 340.641 95.5123 347.886
lowerback 8.66891 -1.96934 8.46415
upperback 17.9868 -1.13803 1.54623
thorax 15.0786 1.15528 -2.78289
lowerneck 10.8632 1.33901 3.80956
upperneck -5.90523 1.39689 -13.4681
head -3.42754 1.34552 -4.85763
rclavicle -1.98785e-014 -1.90833e-014
rhumerus -20.8803 -19.0652 -82.2901
rradius 46.8162
rwrist 1.5398
rhand -8.00212 13.6923
rfingers 7.12502
rthumb 17.9068 -15.5033
lclavicle -1.98785e-014 -1.90833e-014
lhumerus -23.9669 -3.59672 83.4474
lradius 51.2582
lwrist -11.9831
lhand -40.3387 -11.4787
lfingers 7.12502
lthumb -13.2943 18.0773
rfemur -6.84044 -3.06822 18.2487
rtibia 40.1771
rfoot -22.4441 10.6717
rtoes -10.8379
lfemur -42.9968 10.2445 -16.2946
ltibia 57.0084
lfoot 2.39033 11.2205
ltoes -10.95
35
root -13.0714 18.6707 1.5602 341.543 95.5008 348.806
lowerback 8.5944 -1.99394 8.548
upperback 17.9551 -1.19063 1.61573
thorax 15.0793 1.13124 -2.75395
lowerneck 10.7889 1.50093 3.73373
upperneck -5.74521 1.6135 -13.6504
head -3.34787 1.45792 -4.90964
rclavicle 1.59028e-015 7.95139e-015
rhumerus -20.931 -19.1208 -82.296
rradius 46.7194
rwrist 1.6337
rhand -7.98444 13.6871
rfingers 7.12502
rthumb 17.9238 -15.507
lclavicle 1.59028e-015 7.95139e-015
lhumerus -24.0339 -3.62531 83.4121
lradius 51.2693
lwrist -11.9761
lhand -40.2491 -11.378
lfingers 7.12502
lthumb -13.2079 18.1836
rfemur -6.61084 -3.01084 18.3421
rtibia 40.1517
rfoot -22.6243 10.6464
rtoes -10.8199
lfemur -42.5288 10.2425 -16.0873
ltibia 55.5358
lfoot 2.98114 11.2736
ltoes -10.7
36
root -13.0168 18.6603 1.55102 342.537 95.5124 349.809
lowerback 8.52195 -2.03109 8.65437
upperback 17.9119 -1.25984 1.67243
thorax 15.0619 1.10197 -2.75306
lowerneck 10.7206 1.65613 3.6165
upperneck -5.57593 1.82052 -13.7755
head -3.26789 1.56305 -4.93571
rclavicle -8.74653e-015 -3.33958e-014
rhumerus -21.0299 -19.1399 -82.3067
rradius 46.6746
rwrist 1.6926
rhand -7.94917 13.6434
rfingers 7.12502
rthumb 17.9577 -15.5476
lclavicle -8.74653e-015 -3.33958e-014
lhumerus -24.103 -3.63435 83.3727
lradius 51.2841
lwrist -11.9705
lhand -40.2012 -11.2525
lfingers 7.12502
lthumb -13.1617 18.3121
rfemur -6.38944 -3.00568 18.4269
rtibia 40.1435
rfoot -22.8342 10.657
rtoes -10.7752
lfemur -42.0641 10.2178 -15.8809
ltibia 54.0696
lfoot 3.55847 11.2935
ltoes -10.6327
37
root -12.9611 18.6503 1.54223 343.69 95.4967 350.962
lowerback 8.45193 -2.06805 8.72419
upperback 17.8443 -1.33408 1.75564
thorax 15.0096 1.0588 -2.704
lowerneck 10.6914 1.83151 3.42329
upperneck -5.39256 2.04962 -13.8563
head -3.18952 1.67925 -4.9364
rclavicle -2.38542e-015 4.77083e-015
rhumerus -21.1508 -19.1064 -82.2748
rradius 46.5919
rwrist 1.65426
rhand -7.88602 13.6473
rfingers 7.12502
rthumb 18.0185 -15.5381
lclavicle -2.38542e-015 4.77083e-015
lhumerus -24.2144 -3.54556 83.3629
lradius 51.2671
lwrist -12.0196
lhand -40.143 -11.2396
lfingers 7.12502
lthumb -13.1056 18.3286
rfemur -6.19322 -2.96209 18.5494
rtibia 40.1493
rfoot -23.0483 10.605
rtoes -10.9222
lfemur -41.5878 10.2001 -15.6332
ltibia 52.6104
lfoot 4.07021 11.305
ltoes -10.4508
